# AST/ASF file generated using VICON BodyLanguage
# -----------------------------------------------
:version 1.10
:name VICON
:units
  mass 1.0
  length 0.45
  angle deg
:documentation
   .ast/.asf automatically generated from VICON data using
   VICON BodyBuilder and BodyLanguage model FoxedUp or BRILLIANT.MOD
:root
   order TX TY TZ RX RY RZ
   axis XYZ
   position 0 0 0  
   orientation 0 0 0 
:bonedata
  begin
     id 1 
     name lhipjoint
     direction 0.627457 -0.725269 0.283342 
     length 2.53237 
     axis 0 0 0  XYZ
  end
  begin
     id 2 
     name lfemur
     direction 0.34202 -0.939693 0  
     length 7.32496  
     axis 0 0 20  XYZ
    dof rx ry rz
    limits (-160.0 20.0)
           (-70.0 70.0)
           (-60.0 70.0)
  end
  begin
     id 3 
     name ltibia
     direction 0.34202 -0.939693 0   
     length 7.69674   
     axis 0 0 20   XYZ
    dof rx
    limits (-10.0 170.0)
  end
  begin
     id 4 
     name lfoot
     direction 0.127289 -0.349722 0.928166   
     length 1.8612   
     axis -90 7.62852e-016 20   XYZ
    dof rx rz
    limits (-45.0 90.0)
           (-70.0 20.0)
  end
  begin
     id 5 
     name ltoes
     direction 1.53561e-011 -4.21864e-011 1   
     length 0.925608   
     axis -90 7.62852e-016 20   XYZ
    dof rx
    limits (-90.0 20.0)
  end
  begin
     id 6 
     name rhipjoint
     direction -0.609094 -0.738725 0.288599   
     length 2.48624  
     axis 0 0 0  XYZ 
  end
  begin
     id 7 
     name rfemur
     direction -0.34202 -0.939693 0   
     length 7.44259   
     axis 0 0 -20   XYZ
    dof rx ry rz
    limits (-160.0 20.0)
           (-70.0 70.0)
           (-70.0 60.0)
  end
  begin
     id 8 
     name rtibia
     direction -0.34202 -0.939693 0   
     length 7.7781   
     axis 0 0 -20   XYZ
    dof rx
    limits (-10.0 170.0)
 end
 begin
     id 9 
     name rfoot
     direction -0.107015 -0.294021 0.949789   
     length 2.14741  
     axis -90 -7.62852e-016 -20   XYZ
    dof rx rz
    limits (-45.0 90.0)
           (-20.0 70.0)
  end
  begin
     id 10 
     name rtoes
     direction -1.53497e-011 -4.21924e-011 1   
     length 1.0706   
     axis -90 -7.62852e-016 -20   XYZ
    dof rx
    limits (-90.0 20.0)
  end
  begin
     id 11 
     name lowerback
     direction -0.0142066 0.998112 -0.0597545   
     length 1.86627   
     axis 0 0 0   XYZ
    dof rx ry rz
    limits (-20.0 45.0)
           (-30.0 30.0)
           (-30.0 30.0)
  end
  begin
     id 12 
     name upperback
     direction 0.00547294 0.999744 0.0219437   
     length 1.86272   
     axis 0 0 0   XYZ
    dof rx ry rz
    limits (-20.0 45.0)
           (-30.0 30.0)
           (-30.0 30.0)
  end
  begin
     id 13 
     name thorax
     direction 0.0116162 0.998704 0.0495538   
     length 1.8703   
     axis 0 0 0   XYZ
    dof rx ry rz
    limits (-20.0 45.0)
           (-30.0 30.0)
           (-30.0 30.0)
  end
  begin
     id 14 
     name lowerneck
     direction -0.0106574 0.998739 0.0490586   
     length 1.8074   
     axis 0 0 0   XYZ
    dof rx ry rz
    limits (-20.0 45.0)
           (-30.0 30.0)
           (-30.0 30.0)
  end
  begin
     id 15 
     name upperneck
     direction 0.030527 0.976587 -0.212944   
     length 1.80681   
     axis 0 0 0   XYZ
    dof rx ry rz
    limits (-20.0 45.0)
           (-30.0 30.0)
           (-30.0 30.0)
  end
  begin
     id 16
     name head
     direction 0.00869225 0.997035 -0.0764531  
     length 1.8313  
     axis 0 0 0   XYZ
    dof rx ry rz
    limits (-20.0 45.0)
           (-30.0 30.0)
           (-30.0 30.0)
  end
  begin
     id 17 
     name lclavicle
     direction 0.915958 0.399447 0.0382386  
     length 3.78965  
     axis 0 0 0   XYZ
    dof ry rz
    limits (-20.0 10.0)
           (0.0 20.0)
  end
  begin
     id 18 
     name lhumerus
     direction 1 -4.48967e-011 3.19303e-027   
     length 4.78095   
     axis -180 -30 -90   XYZ
    dof rx ry rz
    limits (-60.0 90.0)
           (-90.0 90.0)
           (-90.0 90.0)
  end
  begin
     id 19
     name lradius
     direction 1 -4.48967e-011 -3.77974e-027   
     length 3.58615   
     axis -180 -30 -90   XYZ
    dof rx
    limits (-10.0 170.0)
  end
  begin
     id 20
     name lwrist
     direction 1 -4.48927e-011 1.2807e-027   
     length 1.79307   
     axis 1.91374e-015 90 90   XYZ
    dof ry
    limits (-180.0 0.0)
 end
  begin
     id 21 
     name lhand
     direction 1 -4.49036e-011 2.5614e-027   
     length 0.659812   
     axis -1.63439e-015 90 90   XYZ
    dof rx rz
    limits (-90.0 90.0)
           (-45.0 45.0)
  end
  begin
     id 22 
     name lfingers
     direction 1 -4.49052e-011 5.1228e-027   
     length 0.531957   
     axis -3.26879e-015 90 90   XYZ
    dof rx
    limits (0.0 90.0)
  end
  begin
     id 23
     name lthumb
     direction 0.707107 -6.35012e-011 0.707107   
     length 0.763787   
     axis -90 45 2.85299e-015   XYZ
    dof rx rz
    limits (-45.0 45.0)
           (-45.0 45.0)
  end
  begin
     id 24 
     name rclavicle
     direction -0.895351 0.435135 0.0948887   
     length 3.70497  
     axis 0 0 0   XYZ 
    dof ry rz
    limits (-10.0 20.0)
           (-20.0 0.0)
  end
  begin
     id 25 
     name rhumerus
     direction -1 -4.48971e-011 2.38946e-027  
     length 4.48913   
     axis -180 30 90   XYZ
    dof rx ry rz
    limits (-90.0 60.0)
           (-90.0 90.0)
           (-90.0 90.0)
  end
  begin
     id 26 
     name rradius
     direction -1 -4.4895e-011 4.38668e-027   
     length 3.7051   
     axis -180 30 90   XYZ
    dof rx
    limits (-10.0 170.0)
  end
  begin
     id 27 
     name rwrist
     direction -1 -4.49007e-011 1.2807e-027   
     length 1.85255   
     axis 1.91374e-015 -90 -90   XYZ
    dof ry
    limits (-180.0 0.0)
  end
  begin
     id 28
     name rhand
     direction -1 -4.48851e-011 2.5614e-027   
     length 0.449136   
     axis -1.63439e-015 -90 -90   XYZ
    dof rx rz
    limits (-90.0 90.0)
           (-45.0 45.0)
  end
  begin
     id 29
     name rfingers
     direction -1 -4.49128e-011 5.1228e-027   
     length 0.362105   
     axis -3.26879e-015 -90 -90   XYZ
    dof rx
    limits (0.0 90.0)
  end
  begin
     id 30
     name rthumb
     direction -0.707107 -6.34851e-011 0.707107   
     length 0.519912   
     axis -90 -45 -2.85299e-015   XYZ
    dof rx rz
    limits (-45.0 45.0)
           (-45.0 45.0)
  end
:hierarchy
  begin
    root lhipjoint rhipjoint lowerback
    lhipjoint lfemur
    lfemur ltibia
    ltibia lfoot
    lfoot ltoes
    rhipjoint rfemur
    rfemur rtibia
    rtibia rfoot
    rfoot rtoes
    lowerback upperback
    upperback thorax
    thorax lowerneck lclavicle rclavicle
    lowerneck upperneck
    upperneck head
    lclavicle lhumerus
    lhumerus lradius
    lradius lwrist
    lwrist lhand lthumb
    lhand lfingers
    rclavicle rhumerus
    rhumerus rradius
    rradius rwrist
    rwrist rhand rthumb
    rhand rfingers
  end

#!OML:ASF I:\Actors\actors\Patient Classification 2\Patient 1\Session 1\actor1.ASF
:FULLY-SPECIFIED
:DEGREES
60
root -1.11789 18.0825 5.77858 -2.08171 -2.01881 -4.91695
lowerback 2.60046 1.72708 3.17467
upperback -0.976624 2.42743 0.44287
thorax -2.34874 1.16631 -1.43181
lowerneck -12.4136 -2.73219 -0.702593
upperneck 18.0535 -3.96633 1.74813
head 7.65788 -1.77515 0.284817
rclavicle 3.02401e-014 1.19271e-014
rhumerus -47.4048 -2.9457 -85.0077
rradius 43.6065
rwrist 6.27258
rhand -6.54823 -29.1501
rfingers 7.12502
rthumb 19.3053 -58.2118
lclavicle 3.02401e-014 1.19271e-014
lhumerus -41.8036 8.81816 85.4785
lradius 36.5632
lwrist -9.16293
lhand -4.12405 -24.6903
lfingers 7.12502
lthumb 21.6348 4.12101
rfemur 12.1522 15.8436 24.3909
rtibia -5.40694e-014
rfoot -28.4323 -21.1498
rtoes 6.82397
lfemur 21.147 -9.97163 -13.121
ltibia -20.0013
lfoot -4.86593 22.6765
ltoes -6.19674
61
root -1.11821 18.0832 5.77814 -2.08169 -2.0056 -4.9256
lowerback 2.57026 1.74049 3.17398
upperback -0.961912 2.44409 0.457959
thorax -2.31651 1.17544 -1.41524
lowerneck -12.3741 -2.745 -0.660999
upperneck 17.9512 -3.9679 1.63787
head 7.61385 -1.78485 0.243002
rclavicle 1.78658e-014 -3.97569e-016
rhumerus -47.2528 -2.92441 -84.9712
rradius 43.558
rwrist 6.24057
rhand -6.54051 -29.1277
rfingers 7.12502
rthumb 19.3127 -58.1887
lclavicle 1.78658e-014 -3.97569e-016
lhumerus -41.7416 8.82491 85.5233
lradius 36.534
lwrist -9.1769
lhand -4.1107 -24.7965
lfingers 7.12502
lthumb 21.6477 4.01331
rfemur 12.1543 15.8285 24.4044
rtibia -2.70347e-014
rfoot -28.3737 -21.217
rtoes 6.56322
lfemur 21.1441 -9.97973 -13.109
ltibia -20.0077
lfoot -4.83531 22.6483
ltoes -6.20569
62
root -1.1192 18.0827 5.77809 -2.09885 -1.98073 -4.95493
lowerback 2.55169 1.74155 3.18701
upperback -0.943874 2.4453 0.480857
thorax -2.28792 1.17668 -1.39803
lowerneck -12.3669 -2.74842 -0.682861
upperneck 17.8862 -3.96247 1.61794
head 7.5911 -1.78629 0.241185
rclavicle 6.13748e-015 1.23246e-014
rhumerus -47.1401 -2.93922 -84.9216
rradius 43.4742
rwrist 6.23278
rhand -6.51326 -29.2336
rfingers 7.12502
rthumb 19.3389 -58.292
lclavicle 6.13748e-015 1.23246e-014
lhumerus -41.6945 8.81988 85.5725
lradius 36.4994
lwrist -9.16107
lhand -4.20919 -24.8933
lfingers 7.12502
lthumb 21.5531 3.92741
rfemur 12.178 15.7994 24.444
rtibia -2.70347e-014
rfoot -28.3871 -21.2066
rtoes 6.64347
lfemur 21.1559 -9.96529 -13.0689
ltibia -20.0025
lfoot -4.80836 22.5909
ltoes -6.16535
63
root -1.12062 18.0822 5.77769 -2.11284 -1.95422 -4.95039
lowerback 2.5446 1.74121 3.16784
upperback -0.937098 2.44384 0.485006
thorax -2.27797 1.1765 -1.38263
lowerneck -12.3734 -2.73586 -0.724649
upperneck 17.8557 -3.94113 1.64514
head 7.5834 -1.77656 0.259234
rclavicle 1.9456e-014 -5.1684e-015
rhumerus -47.0931 -2.94588 -84.8803
rradius 43.3495
rwrist 6.12201
rhand -6.6452 -29.3433
rfingers 7.12502
rthumb 19.212 -58.4144
lclavicle 1.9456e-014 -5.1684e-015
lhumerus -41.661 8.80639 85.5943
lradius 36.4701
lwrist -9.1382
lhand -4.23653 -24.9081
lfingers 7.12502
lthumb 21.5268 3.9156
rfemur 12.1925 15.7715 24.4438
rtibia -1.74931e-014
rfoot -28.4261 -21.1593
rtoes 6.79337
lfemur 21.1594 -9.94667 -13.0648
ltibia -19.997
lfoot -4.82312 22.5466
ltoes -6.17822
64
root -1.12144 18.0819 5.7774 -2.12873 -1.93255 -4.92733
lowerback 2.54795 1.74788 3.14876
upperback -0.936954 2.45185 0.469372
thorax -2.27942 1.18064 -1.38846
lowerneck -12.3822 -2.73018 -0.723835
upperneck 17.8618 -3.9353 1.65396
head 7.58709 -1.77274 0.262414
rclavicle -4.29872e-015 4.37326e-015
rhumerus -47.1026 -2.89917 -84.8907
rradius 43.3134
rwrist 5.9776
rhand -6.75357 -29.2882
rfingers 7.12502
rthumb 19.1078 -58.3696
lclavicle -4.29872e-015 4.37326e-015
lhumerus -41.6444 8.86318 85.5171
lradius 36.3439
lwrist -9.16258
lhand -4.15445 -25.3682
lfingers 7.12502
lthumb 21.6056 3.44651
rfemur 12.2117 15.7487 24.4266
rtibia -2.06736e-014
rfoot -28.4094 -21.198
rtoes 6.58488
lfemur 21.1658 -9.91485 -13.0828
ltibia -19.9968
lfoot -4.85164 22.4946
ltoes -6.15386
65
root -1.12173 18.0823 5.77697 -2.13726 -1.91229 -4.934
lowerback 2.55451 1.75998 3.17812
upperback -0.947896 2.46901 0.446434
thorax -2.29137 1.1883 -1.42952
lowerneck -12.3663 -2.75334 -0.691507
upperneck 17.894 -3.97948 1.67817
head 7.5953 -1.78918 0.260505
rclavicle -6.38596e-015 1.70955e-014
rhumerus -47.1347 -2.90548 -84.9352
rradius 43.3302
rwrist 5.94833
rhand -6.67477 -29.2257
rfingers 7.12502
rthumb 19.1836 -58.2996
lclavicle -6.38596e-015 1.70955e-014
lhumerus -41.6541 9.03281 85.3276
lradius 36.1178
lwrist -9.29686
lhand -4.11757 -26.2831
lfingers 7.12502
lthumb 21.6411 2.52753
rfemur 12.2248 15.7269 24.4371
rtibia 3.18055e-014
rfoot -28.3719 -21.2389
rtoes 6.40967
lfemur 21.1612 -9.91208 -13.0717
ltibia -19.9851
lfoot -4.87132 22.4929
ltoes -6.08987
66
root -1.12251 18.0835 5.77573 -2.12489 -1.88047 -4.96305
lowerback 2.55379 1.76789 3.21839
upperback -0.965937 2.48109 0.434772
thorax -2.30683 1.19319 -1.46479
lowerneck -12.3456 -2.77418 -0.664118
upperneck 17.9195 -4.01936 1.70273
head 7.60051 -1.80395 0.260082
rclavicle 4.12478e-015 7.15625e-015
rhumerus -47.1437 -2.95006 -84.9759
rradius 43.2963
rwrist 5.95388
rhand -6.55371 -29.1249
rfingers 7.12502
rthumb 19.3 -58.1872
lclavicle 4.12478e-015 7.15625e-015
lhumerus -41.6872 9.21114 85.1808
lradius 36.0183
lwrist -9.47068
lhand -4.12419 -26.6865
lfingers 7.12502
lthumb 21.6347 2.12481
rfemur 12.2078 15.694 24.4644
rtibia 7.95139e-015
rfoot -28.3437 -21.2476
rtoes 6.37254
lfemur 21.129 -9.98582 -13.0403
ltibia -19.967
lfoot -4.90488 22.5588
ltoes -5.97708
